<svg width="39" height="39" fill="none" xmlns="http://www.w3.org/2000/svg"><circle cx="19.5" cy="19.5" r="19.5" fill="#ECECEC"/><path d="M29.526 12.98a8.437 8.437 0 01-2.422.652 4.196 4.196 0 001.85-2.319 8.304 8.304 0 01-2.67 1.017A4.195 4.195 0 0023.212 11a4.205 4.205 0 00-4.206 4.208c0 .326.04.652.104.965a11.954 11.954 0 01-8.673-4.403 4.177 4.177 0 00-.573 2.124 4.21 4.21 0 001.875 3.505 4.244 4.244 0 01-1.902-.535v.051a4.207 4.207 0 003.372 4.13 4.456 4.456 0 01-1.107.143 5.61 5.61 0 01-.795-.064 4.214 4.214 0 003.933 2.918 8.43 8.43 0 01-5.223 1.798 8.49 8.49 0 01-1.016-.052 11.911 11.911 0 006.46 1.888c7.736 0 11.97-6.41 11.97-11.972 0-.182 0-.365-.013-.547a9.062 9.062 0 002.11-2.176z" fill="#31352B"/></svg>